<svg width="40" height="48" viewBox="0 0 40 48" fill="none" xmlns="http://www.w3.org/2000/svg">
<mask id="path-1-inside-1" fill="white">
<path d="M20 0C8.9543 0 0 8.9543 0 20C0 28.5831 5.65678 34.5941 13 39C16.2817 40.969 17.4095 43.8062 17.7971 45.5237C17.9285 46.1062 17.9942 46.3974 18.085 46.5421C18.2265 46.7675 18.3534 46.8685 18.6048 46.9555C18.7663 47.0115 19.0134 47.0102 19.5077 47.0077C19.9972 47.0051 20.2419 47.0039 20.4018 46.9471C20.6509 46.8587 20.776 46.7581 20.9158 46.5338C21.0055 46.3898 21.0705 46.1012 21.2004 45.5239C21.5856 43.8121 22.7111 40.9734 26 39C33.6377 34.4174 40 28.9553 40 20C40 8.9543 31.0457 0 20 0Z"/>
</mask>
<path d="M20 0C8.9543 0 0 8.9543 0 20C0 28.5831 5.65678 34.5941 13 39C16.2817 40.969 17.4095 43.8062 17.7971 45.5237C17.9285 46.1062 17.9942 46.3974 18.085 46.5421C18.2265 46.7675 18.3534 46.8685 18.6048 46.9555C18.7663 47.0115 19.0134 47.0102 19.5077 47.0077C19.9972 47.0051 20.2419 47.0039 20.4018 46.9471C20.6509 46.8587 20.776 46.7581 20.9158 46.5338C21.0055 46.3898 21.0705 46.1012 21.2004 45.5239C21.5856 43.8121 22.7111 40.9734 26 39C33.6377 34.4174 40 28.9553 40 20C40 8.9543 31.0457 0 20 0Z" fill="#BED42B"/>
<path d="M13 39L13.5145 38.1425L13 39ZM26 39L26.5145 39.8575L26 39ZM21.2004 45.5239L22.176 45.7434L21.2004 45.5239ZM20.9158 46.5338L21.7644 47.0627L20.9158 46.5338ZM20.4018 46.9471L20.0672 46.0048L20.4018 46.9471ZM18.085 46.5421L17.238 47.0737L18.085 46.5421ZM18.6048 46.9555L18.2776 47.9005L18.6048 46.9555ZM1 20C1 9.50659 9.50659 1 20 1V-1C8.40202 -1 -1 8.40202 -1 20H1ZM20 1C30.4934 1 39 9.50659 39 20H41C41 8.40202 31.598 -1 20 -1V1ZM13.5145 38.1425C6.28944 33.8075 1 28.061 1 20H-1C-1 29.1051 5.02412 35.3807 12.4855 39.8575L13.5145 38.1425ZM39 20C39 28.3745 33.093 33.578 25.4855 38.1425L26.5145 39.8575C34.1824 35.2568 41 29.5361 41 20H39ZM18.7725 45.3036C18.346 43.4134 17.1018 40.2949 13.5145 38.1425L12.4855 39.8575C15.4616 41.6431 16.473 44.199 16.8216 45.7439L18.7725 45.3036ZM25.4855 38.1425C21.891 40.2992 20.649 43.4192 20.2248 45.3043L22.176 45.7434C22.5222 44.2049 23.5311 41.6475 26.5145 39.8575L25.4855 38.1425ZM20.2248 45.3043C20.1578 45.6019 20.1144 45.794 20.0774 45.9314C20.0596 45.9977 20.0478 46.0337 20.0414 46.0509C20.0346 46.0696 20.0411 46.0465 20.0672 46.0048L21.7644 47.0627C21.8943 46.8544 21.9634 46.6194 22.0087 46.4512C22.0591 46.264 22.113 46.0232 22.176 45.7434L20.2248 45.3043ZM19.5128 48.0076C19.7472 48.0064 19.9598 48.0056 20.1325 47.9963C20.2997 47.9872 20.5175 47.9672 20.7364 47.8895L20.0672 46.0048C20.1262 45.9838 20.1417 45.9928 20.0242 45.9992C19.9122 46.0053 19.7576 46.0064 19.5026 46.0077L19.5128 48.0076ZM20.0672 46.0048C20.0584 46.0188 20.0521 46.0282 20.0479 46.034C20.0438 46.0398 20.0423 46.0416 20.0432 46.0405C20.0442 46.0393 20.0474 46.0356 20.0529 46.0302C20.0584 46.0246 20.0652 46.0185 20.0731 46.0121C20.081 46.0058 20.0885 46.0005 20.095 45.9962C20.1015 45.9921 20.1059 45.9897 20.1073 45.989C20.1085 45.9883 20.1064 45.9895 20.0999 45.9923C20.0933 45.9951 20.0827 45.9992 20.0672 46.0048L20.7364 47.8895C20.9238 47.8229 21.1295 47.7291 21.3265 47.5707C21.5235 47.4122 21.6593 47.2315 21.7644 47.0627L20.0672 46.0048ZM16.8216 45.7439C16.8853 46.0261 16.9399 46.269 16.9909 46.4578C17.0366 46.6272 17.1065 46.8641 17.238 47.0737L18.9321 46.0106C18.9585 46.0527 18.9651 46.076 18.9581 46.057C18.9517 46.0396 18.9398 46.0033 18.9217 45.9363C18.8843 45.7977 18.8403 45.6038 18.7725 45.3036L16.8216 45.7439ZM19.5026 46.0077C19.245 46.009 19.0889 46.0095 18.9757 46.0045C18.8567 45.9992 18.8723 45.9899 18.9321 46.0106L18.2776 47.9005C18.4989 47.9771 18.7188 47.9951 18.8873 48.0025C19.0616 48.0102 19.2761 48.0089 19.5128 48.0076L19.5026 46.0077ZM17.238 47.0737C17.3446 47.2435 17.4821 47.425 17.6813 47.5834C17.8805 47.7418 18.0882 47.8349 18.2776 47.9005L18.9321 46.0106C18.9164 46.0052 18.9058 46.0011 18.8992 45.9983C18.8926 45.9956 18.8905 45.9944 18.8918 45.9951C18.8931 45.9958 18.8975 45.9981 18.904 46.0022C18.9107 46.0064 18.9182 46.0117 18.9261 46.0181C18.9341 46.0244 18.9409 46.0305 18.9465 46.036C18.952 46.0414 18.9553 46.0452 18.9563 46.0464C18.9572 46.0474 18.9556 46.0457 18.9515 46.0399C18.9473 46.034 18.9409 46.0246 18.9321 46.0106L17.238 47.0737Z" fill="black" fill-opacity="0.05" mask="url(#path-1-inside-1)"/>
</svg>
